<?xml version='1.0' encoding='utf-8'?>
<svg xmlns="http://www.w3.org/2000/svg" enable-background="new 0 0 100 100" version="1.1" viewBox="0 0 100 100">
	<path d="M50,3.416C24.313,3.416,3.416,24.313,3.416,50c0,25.688,20.897,46.584,46.584,46.584   c25.688,0,46.584-20.896,46.584-46.584C96.584,24.313,75.688,3.416,50,3.416z M50,90.584C27.622,90.584,9.416,72.378,9.416,50   S27.622,9.416,50,9.416S90.584,27.622,90.584,50S72.378,90.584,50,90.584z" fill="#231F20"/>
	<path d="m35.469 43.848h1.941v-2.02c2.255-0.373 3.471-1.863 3.471-3.608 0-1.785-0.922-2.863-3.255-3.687-1.686-0.607-2.373-1.039-2.373-1.666 0-0.55 0.413-1.118 1.687-1.118 1.411 0 2.333 0.452 2.823 0.687l0.588-2.217c-0.686-0.313-1.569-0.606-2.863-0.646v-1.725h-1.921v1.861c-2.098 0.392-3.314 1.746-3.314 3.49 0 1.902 1.432 2.883 3.53 3.589 1.471 0.491 2.098 0.961 2.098 1.706 0 0.765-0.765 1.216-1.902 1.216-1.275 0-2.431-0.412-3.255-0.862l-0.588 2.294c0.745 0.412 2.02 0.784 3.333 0.843v1.863z" fill="#FFF200"/>
	<path d="m62.451 43.848h1.941v-2.02c2.256-0.373 3.471-1.863 3.471-3.608 0-1.785-0.922-2.863-3.256-3.687-1.686-0.607-2.371-1.039-2.371-1.666 0-0.55 0.412-1.118 1.686-1.118 1.412 0 2.334 0.452 2.824 0.687l0.588-2.217c-0.686-0.313-1.568-0.606-2.863-0.646v-1.725h-1.922v1.861c-2.098 0.392-3.313 1.746-3.313 3.49 0 1.902 1.431 2.883 3.529 3.589 1.471 0.491 2.098 0.961 2.098 1.706 0 0.765-0.766 1.216-1.902 1.216-1.273 0-2.432-0.412-3.254-0.862l-0.59 2.294c0.746 0.412 2.021 0.784 3.334 0.843v1.863z" fill="#FFF200"/>
	<path d="m50 9.416c-22.378 0-40.584 18.206-40.584 40.584s18.206 40.584 40.584 40.584 40.584-18.206 40.584-40.584-18.206-40.584-40.584-40.584zm13.492 14.431c4.268 0 7.725 5.372 7.725 12s-3.457 12-7.725 12-7.727-5.372-7.727-12c1e-3 -6.628 3.46-12 7.727-12zm-26.984 0c4.267 0 7.725 5.372 7.725 12s-3.457 12-7.725 12c-4.266 0-7.725-5.372-7.725-12s3.459-12 7.725-12zm37.131 40.387c-4.914 8.004-13.92 12.976-23.504 12.976-9.837 0-18.96-5.169-23.809-13.489-0.835-1.432-0.35-3.269 1.081-4.103 1.433-0.836 3.27-0.351 4.103 1.081 3.779 6.484 10.916 10.511 18.625 10.511 7.514 0 14.561-3.876 18.391-10.114 0.867-1.412 2.716-1.854 4.125-0.986 1.412 0.867 1.855 2.713 0.988 4.124z" fill="#FFF200"/>
	<path d="m36.508 47.847c4.268 0 7.725-5.372 7.725-12s-3.458-12-7.725-12c-4.266 0-7.725 5.372-7.725 12s3.459 12 7.725 12zm-3.784-8.999c0.824 0.45 1.98 0.862 3.255 0.862 1.137 0 1.902-0.451 1.902-1.216 0-0.745-0.627-1.215-2.098-1.706-2.098-0.706-3.53-1.687-3.53-3.589 0-1.744 1.216-3.098 3.314-3.49v-1.861h1.921v1.725c1.294 0.04 2.177 0.333 2.863 0.646l-0.588 2.217c-0.49-0.235-1.412-0.687-2.823-0.687-1.274 0-1.687 0.568-1.687 1.118 0 0.627 0.687 1.059 2.373 1.666 2.333 0.824 3.255 1.902 3.255 3.687 0 1.745-1.216 3.235-3.471 3.608v2.02h-1.941v-1.863c-1.313-0.059-2.588-0.431-3.333-0.843l0.588-2.294z" fill="#231F20"/>
	<path d="m63.492 47.847c4.268 0 7.725-5.372 7.725-12s-3.457-12-7.725-12-7.727 5.372-7.727 12c1e-3 6.628 3.46 12 7.727 12zm-3.785-8.999c0.822 0.45 1.98 0.862 3.254 0.862 1.137 0 1.902-0.451 1.902-1.216 0-0.745-0.627-1.215-2.098-1.706-2.099-0.706-3.529-1.687-3.529-3.589 0-1.744 1.215-3.098 3.313-3.49v-1.861h1.922v1.725c1.295 0.04 2.178 0.333 2.863 0.646l-0.588 2.217c-0.49-0.235-1.412-0.687-2.824-0.687-1.273 0-1.686 0.568-1.686 1.118 0 0.627 0.686 1.059 2.371 1.666 2.334 0.824 3.256 1.902 3.256 3.687 0 1.745-1.215 3.235-3.471 3.608v2.02h-1.941v-1.863c-1.313-0.059-2.588-0.431-3.334-0.843l0.59-2.294z" fill="#231F20"/>
	<path d="m72.65 60.109c-1.409-0.867-3.258-0.426-4.125 0.986-3.83 6.238-10.877 10.114-18.391 10.114-7.709 0-14.846-4.026-18.625-10.511-0.833-1.432-2.67-1.917-4.103-1.081-1.431 0.834-1.916 2.671-1.081 4.103 4.849 8.32 13.972 13.489 23.809 13.489 9.584 0 18.59-4.972 23.504-12.976 0.868-1.41 0.425-3.256-0.988-4.124z" fill="#231F20"/>
</svg>